<svg width="127" height="15" viewBox="0 0 127 15" fill="none" xmlns="http://www.w3.org/2000/svg">
<path d="M6.50537 3.61464C6.69853 3.61464 6.85455 3.67779 6.97343 3.80409C7.0923 3.9304 7.15173 4.09384 7.15173 4.29444V8.32866C7.15173 8.94531 7.02172 9.49137 6.76168 9.96686C6.50165 10.4423 6.13761 10.8138 5.66955 11.0813C5.20149 11.3487 4.66657 11.4825 4.06478 11.4825C3.46299 11.4825 2.92435 11.3487 2.44886 11.0813C1.9808 10.8138 1.61676 10.4423 1.35673 9.96686C1.09669 9.49137 0.966678 8.94531 0.966678 8.32866V4.29444C0.966678 4.10127 1.03354 3.94154 1.16727 3.81524C1.30101 3.68151 1.47188 3.61464 1.67991 3.61464C1.85822 3.61464 2.01424 3.68151 2.14797 3.81524C2.2817 3.94154 2.34856 4.10127 2.34856 4.29444V8.32866C2.34856 8.68527 2.42657 9.00474 2.58259 9.28706C2.73861 9.56195 2.94664 9.77369 3.20667 9.92228C3.47413 10.0709 3.76017 10.1452 4.06478 10.1452C4.38425 10.1452 4.68143 10.0709 4.95632 9.92228C5.23864 9.77369 5.46152 9.56195 5.62497 9.28706C5.79585 9.00474 5.88129 8.68527 5.88129 8.32866V4.29444C5.88129 4.09384 5.93701 3.9304 6.04845 3.80409C6.1599 3.67779 6.3122 3.61464 6.50537 3.61464ZM11.7998 5.35314C12.3124 5.35314 12.7767 5.48688 13.1928 5.75434C13.6088 6.01437 13.9357 6.37841 14.1735 6.84647C14.4187 7.31453 14.5412 7.84574 14.5412 8.4401C14.5412 9.03446 14.4224 9.56938 14.1846 10.0449C13.9469 10.5129 13.62 10.8807 13.2039 11.1482C12.7953 11.4082 12.3421 11.5382 11.8443 11.5382C11.4877 11.5382 11.1497 11.4676 10.8302 11.3265C10.5182 11.1779 10.2581 10.9996 10.0501 10.7915V12.9758C10.0501 13.169 9.98696 13.3287 9.86066 13.455C9.73435 13.5887 9.57462 13.6556 9.38145 13.6556C9.18829 13.6556 9.02855 13.5925 8.90225 13.4662C8.77595 13.3399 8.7128 13.1764 8.7128 12.9758V6.14439C8.7128 5.95122 8.77595 5.79148 8.90225 5.66518C9.02855 5.53145 9.18829 5.46459 9.38145 5.46459C9.57462 5.46459 9.73435 5.53145 9.86066 5.66518C9.98696 5.79148 10.0501 5.95122 10.0501 6.14439V6.18896C10.2284 5.96608 10.4773 5.77291 10.7968 5.60946C11.1162 5.43858 11.4506 5.35314 11.7998 5.35314ZM11.6326 10.3123C12.1081 10.3123 12.4981 10.134 12.8027 9.77741C13.1073 9.42079 13.2597 8.97502 13.2597 8.4401C13.2597 7.90518 13.1073 7.46312 12.8027 7.11394C12.5056 6.75732 12.1155 6.57901 11.6326 6.57901C11.1497 6.57901 10.7559 6.75732 10.4513 7.11394C10.1467 7.46312 9.99439 7.90518 9.99439 8.4401C9.99439 8.97502 10.1467 9.42079 10.4513 9.77741C10.7559 10.134 11.1497 10.3123 11.6326 10.3123ZM20.5931 5.35314C20.7863 5.35314 20.946 5.4163 21.0723 5.5426C21.1986 5.6689 21.2617 5.83235 21.2617 6.03294V10.9921C21.2617 11.8985 20.9794 12.5672 20.4148 12.9981C19.8576 13.4364 19.148 13.6556 18.2862 13.6556C18.0633 13.6556 17.755 13.6185 17.3613 13.5442C16.9749 13.4699 16.7 13.3956 16.5366 13.3213C16.1725 13.1653 15.9905 12.9498 15.9905 12.6749C15.9905 12.6229 16.0017 12.5635 16.0239 12.4966C16.0685 12.3332 16.1428 12.2069 16.2468 12.1177C16.3583 12.036 16.4771 11.9951 16.6034 11.9951C16.6777 11.9951 16.7483 12.0063 16.8152 12.0285C16.8449 12.036 17.0269 12.1028 17.3613 12.2291C17.703 12.3629 18.0113 12.4297 18.2862 12.4297C18.836 12.4297 19.2446 12.3183 19.5121 12.0954C19.787 11.88 19.9244 11.5716 19.9244 11.1704V10.6355C19.761 10.8658 19.5121 11.0739 19.1778 11.2596C18.8509 11.4453 18.498 11.5382 18.1191 11.5382C17.599 11.5382 17.1235 11.4082 16.6926 11.1482C16.2691 10.8807 15.9348 10.5129 15.6896 10.0449C15.4444 9.57681 15.3219 9.0456 15.3219 8.45124C15.3219 7.85688 15.4407 7.32568 15.6785 6.85762C15.9236 6.38213 16.2543 6.01437 16.6703 5.75434C17.0938 5.48688 17.5619 5.35314 18.0745 5.35314C18.4534 5.35314 18.8063 5.43115 19.1332 5.58717C19.4601 5.74319 19.7238 5.93265 19.9244 6.15553V6.03294C19.9244 5.83978 19.9876 5.68004 20.1139 5.55374C20.2402 5.42001 20.3999 5.35314 20.5931 5.35314ZM18.2862 10.3123C18.784 10.3123 19.1889 10.1377 19.5009 9.78855C19.8204 9.43194 19.9802 8.98617 19.9802 8.45124C19.9802 7.91632 19.8204 7.47055 19.5009 7.11394C19.1889 6.75732 18.784 6.57901 18.2862 6.57901C17.7884 6.57901 17.3835 6.75732 17.0715 7.11394C16.7595 7.47055 16.6034 7.91632 16.6034 8.45124C16.6034 8.98617 16.7595 9.43194 17.0715 9.78855C17.3835 10.1377 17.7884 10.3123 18.2862 10.3123ZM25.8065 5.35314C26.0294 5.35314 26.2151 5.4163 26.3637 5.5426C26.5197 5.6689 26.5977 5.81749 26.5977 5.98837C26.5977 6.21868 26.5383 6.39327 26.4194 6.51215C26.3006 6.62359 26.1594 6.67931 25.996 6.67931C25.8845 6.67931 25.7582 6.65331 25.617 6.6013C25.5948 6.59387 25.5428 6.57901 25.461 6.55672C25.3867 6.53443 25.305 6.52329 25.2159 6.52329C25.0227 6.52329 24.837 6.58273 24.6586 6.7016C24.4803 6.82047 24.3317 7.00249 24.2129 7.24767C24.1014 7.48541 24.0457 7.77145 24.0457 8.10577V10.747C24.0457 10.9401 23.9826 11.1036 23.8563 11.2373C23.73 11.3636 23.5702 11.4268 23.3771 11.4268C23.1839 11.4268 23.0242 11.3636 22.8979 11.2373C22.7716 11.1036 22.7084 10.9401 22.7084 10.747V6.14439C22.7084 5.95122 22.7716 5.79148 22.8979 5.66518C23.0242 5.53145 23.1839 5.46459 23.3771 5.46459C23.5702 5.46459 23.73 5.53145 23.8563 5.66518C23.9826 5.79148 24.0457 5.95122 24.0457 6.14439V6.28926C24.2166 5.98465 24.4618 5.75434 24.7812 5.59832C25.1007 5.43487 25.4425 5.35314 25.8065 5.35314ZM32.2353 5.35314C32.4285 5.35314 32.5882 5.4163 32.7145 5.5426C32.8408 5.6689 32.904 5.83235 32.904 6.03294V10.747C32.904 10.9401 32.8408 11.1036 32.7145 11.2373C32.5882 11.3636 32.4285 11.4268 32.2353 11.4268C32.0422 11.4268 31.8824 11.3636 31.7561 11.2373C31.6373 11.111 31.5741 10.9513 31.5667 10.7581C31.3809 10.9736 31.1283 11.1593 30.8089 11.3153C30.4968 11.4639 30.1662 11.5382 29.817 11.5382C29.3044 11.5382 28.8401 11.4082 28.424 11.1482C28.008 10.8807 27.6773 10.5129 27.4322 10.0449C27.1944 9.57681 27.0756 9.0456 27.0756 8.45124C27.0756 7.85688 27.1944 7.32568 27.4322 6.85762C27.6699 6.38213 27.9931 6.01437 28.4017 5.75434C28.8178 5.48688 29.2747 5.35314 29.7725 5.35314C30.1291 5.35314 30.4634 5.42001 30.7754 5.55374C31.0875 5.68004 31.3512 5.84349 31.5667 6.04409V6.03294C31.5667 5.83978 31.6298 5.68004 31.7561 5.55374C31.8824 5.42001 32.0422 5.35314 32.2353 5.35314ZM29.9842 10.3123C30.4671 10.3123 30.8609 10.1377 31.1655 9.78855C31.4701 9.43194 31.6224 8.98617 31.6224 8.45124C31.6224 7.91632 31.4701 7.47055 31.1655 7.11394C30.8609 6.75732 30.4671 6.57901 29.9842 6.57901C29.5087 6.57901 29.1187 6.75732 28.8141 7.11394C28.5094 7.47055 28.3571 7.91632 28.3571 8.45124C28.3571 8.98617 28.5057 9.43194 28.8029 9.78855C29.1075 10.1377 29.5013 10.3123 29.9842 10.3123ZM39.1787 3.18002C39.3719 3.18002 39.5316 3.24317 39.6579 3.36947C39.7842 3.49577 39.8474 3.65922 39.8474 3.85982V10.747C39.8474 10.9401 39.7842 11.1036 39.6579 11.2373C39.5316 11.3636 39.3719 11.4268 39.1787 11.4268C38.9856 11.4268 38.8258 11.3636 38.6995 11.2373C38.5807 11.111 38.5175 10.9513 38.5101 10.7581C38.3243 10.9736 38.0717 11.1593 37.7523 11.3153C37.4402 11.4639 37.1096 11.5382 36.7604 11.5382C36.2478 11.5382 35.7834 11.4082 35.3674 11.1482C34.9513 10.8807 34.6207 10.5129 34.3756 10.0449C34.1378 9.57681 34.0189 9.0456 34.0189 8.45124C34.0189 7.85688 34.1378 7.32568 34.3756 6.85762C34.6133 6.38213 34.9365 6.01437 35.3451 5.75434C35.7612 5.48688 36.2181 5.35314 36.7158 5.35314C37.0725 5.35314 37.4068 5.42001 37.7188 5.55374C38.0309 5.68004 38.2946 5.84349 38.5101 6.04409V3.85982C38.5101 3.66665 38.5732 3.50691 38.6995 3.38061C38.8258 3.24688 38.9856 3.18002 39.1787 3.18002ZM36.9276 10.3123C37.4105 10.3123 37.8043 10.1377 38.1089 9.78855C38.4135 9.43194 38.5658 8.98617 38.5658 8.45124C38.5658 7.91632 38.4135 7.47055 38.1089 7.11394C37.8043 6.75732 37.4105 6.57901 36.9276 6.57901C36.4521 6.57901 36.0621 6.75732 35.7574 7.11394C35.4528 7.47055 35.3005 7.91632 35.3005 8.45124C35.3005 8.98617 35.4491 9.43194 35.7463 9.78855C36.0509 10.1377 36.4447 10.3123 36.9276 10.3123ZM46.6459 8.30637C46.6385 8.48468 46.5679 8.62955 46.4341 8.74099C46.3004 8.85244 46.1444 8.90816 45.9661 8.90816H42.2885C42.3776 9.3465 42.582 9.69197 42.9014 9.94457C43.2209 10.1897 43.5812 10.3123 43.9824 10.3123C44.287 10.3123 44.5248 10.2863 44.6956 10.2343C44.8665 10.1749 45.0003 10.1155 45.0968 10.056C45.2009 9.98915 45.2714 9.94457 45.3086 9.92228C45.4423 9.85542 45.5686 9.82199 45.6875 9.82199C45.8435 9.82199 45.9772 9.87771 46.0887 9.98915C46.2001 10.1006 46.2558 10.2306 46.2558 10.3792C46.2558 10.5798 46.1518 10.7618 45.9438 10.9253C45.7358 11.0961 45.4572 11.241 45.108 11.3599C44.7588 11.4788 44.4059 11.5382 44.0493 11.5382C43.4252 11.5382 42.8791 11.4082 42.4111 11.1482C41.9504 10.8881 41.5938 10.5315 41.3412 10.0783C41.0886 9.61768 40.9623 9.10133 40.9623 8.52925C40.9623 7.89032 41.0961 7.32939 41.3635 6.84647C41.631 6.36356 41.9839 5.9958 42.4222 5.74319C42.8606 5.48316 43.3286 5.35314 43.8264 5.35314C44.3167 5.35314 44.7774 5.48688 45.2083 5.75434C45.6466 6.0218 45.9958 6.38213 46.2558 6.83533C46.5159 7.28853 46.6459 7.77888 46.6459 8.30637ZM43.8264 6.57901C42.9646 6.57901 42.4557 6.98392 42.2996 7.79373H45.2194V7.71572C45.1897 7.40369 45.0374 7.13622 44.7625 6.91334C44.4876 6.69045 44.1756 6.57901 43.8264 6.57901ZM53.7598 10.1675C53.8638 10.1675 53.9567 10.2195 54.0384 10.3235C54.1276 10.4201 54.1722 10.5501 54.1722 10.7135C54.1722 10.9141 54.0607 11.085 53.8378 11.2262C53.6224 11.3599 53.3772 11.4268 53.1023 11.4268C52.6417 11.4268 52.2516 11.3302 51.9322 11.137C51.6201 10.9364 51.4641 10.5166 51.4641 9.87771V6.8019H50.9515C50.7732 6.8019 50.6246 6.74246 50.5057 6.62359C50.3868 6.50472 50.3274 6.35613 50.3274 6.17782C50.3274 6.00694 50.3868 5.86578 50.5057 5.75434C50.6246 5.63547 50.7732 5.57603 50.9515 5.57603H51.4641V4.8628C51.4641 4.66963 51.5273 4.5099 51.6536 4.3836C51.7873 4.24986 51.9508 4.183 52.1439 4.183C52.3297 4.183 52.4857 4.24986 52.612 4.3836C52.7383 4.5099 52.8014 4.66963 52.8014 4.8628V5.57603H53.5927C53.771 5.57603 53.9196 5.63547 54.0384 5.75434C54.1573 5.87321 54.2167 6.0218 54.2167 6.20011C54.2167 6.37099 54.1573 6.51586 54.0384 6.63473C53.9196 6.74618 53.771 6.8019 53.5927 6.8019H52.8014V9.82199C52.8014 9.97801 52.8423 10.0932 52.924 10.1675C53.0057 10.2343 53.1172 10.2678 53.2583 10.2678C53.3178 10.2678 53.3995 10.2529 53.5035 10.2232C53.5927 10.186 53.6781 10.1675 53.7598 10.1675ZM61.1183 8.45124C61.1183 9.0456 60.9846 9.58053 60.7172 10.056C60.4497 10.5241 60.0819 10.8881 59.6139 11.1482C59.1532 11.4082 58.6443 11.5382 58.0871 11.5382C57.5225 11.5382 57.0098 11.4082 56.5492 11.1482C56.0886 10.8881 55.7245 10.5241 55.4571 10.056C55.1896 9.58053 55.0559 9.0456 55.0559 8.45124C55.0559 7.85688 55.1896 7.32568 55.4571 6.85762C55.7245 6.38213 56.0886 6.01437 56.5492 5.75434C57.0098 5.48688 57.5225 5.35314 58.0871 5.35314C58.6443 5.35314 59.1532 5.48688 59.6139 5.75434C60.0819 6.01437 60.4497 6.38213 60.7172 6.85762C60.9846 7.32568 61.1183 7.85688 61.1183 8.45124ZM59.781 8.45124C59.781 8.0872 59.703 7.76402 59.547 7.4817C59.3984 7.19194 59.1941 6.96906 58.9341 6.81304C58.6815 6.65702 58.3992 6.57901 58.0871 6.57901C57.7751 6.57901 57.489 6.65702 57.229 6.81304C56.9764 6.96906 56.7721 7.19194 56.6161 7.4817C56.4675 7.76402 56.3932 8.0872 56.3932 8.45124C56.3932 8.81529 56.4675 9.13847 56.6161 9.42079C56.7721 9.70311 56.9764 9.92228 57.229 10.0783C57.489 10.2343 57.7751 10.3123 58.0871 10.3123C58.3992 10.3123 58.6815 10.2343 58.9341 10.0783C59.1941 9.92228 59.3984 9.70311 59.547 9.42079C59.703 9.13847 59.781 8.81529 59.781 8.45124ZM68.446 5.35314C68.9587 5.35314 69.423 5.48688 69.8391 5.75434C70.2551 6.01437 70.582 6.37841 70.8198 6.84647C71.0649 7.31453 71.1875 7.84574 71.1875 8.4401C71.1875 9.03446 71.0686 9.56938 70.8309 10.0449C70.5932 10.5129 70.2663 10.8807 69.8502 11.1482C69.4416 11.4082 68.9884 11.5382 68.4906 11.5382C68.134 11.5382 67.796 11.4676 67.4765 11.3265C67.1644 11.1779 66.9044 10.9996 66.6964 10.7915V12.9758C66.6964 13.169 66.6332 13.3287 66.5069 13.455C66.3806 13.5887 66.2209 13.6556 66.0277 13.6556C65.8346 13.6556 65.6748 13.5925 65.5485 13.4662C65.4222 13.3399 65.3591 13.1764 65.3591 12.9758V6.14439C65.3591 5.95122 65.4222 5.79148 65.5485 5.66518C65.6748 5.53145 65.8346 5.46459 66.0277 5.46459C66.2209 5.46459 66.3806 5.53145 66.5069 5.66518C66.6332 5.79148 66.6964 5.95122 66.6964 6.14439V6.18896C66.8747 5.96608 67.1236 5.77291 67.4431 5.60946C67.7625 5.43858 68.0968 5.35314 68.446 5.35314ZM68.2789 10.3123C68.7544 10.3123 69.1444 10.134 69.449 9.77741C69.7536 9.42079 69.9059 8.97502 69.9059 8.4401C69.9059 7.90518 69.7536 7.46312 69.449 7.11394C69.1518 6.75732 68.7618 6.57901 68.2789 6.57901C67.796 6.57901 67.4022 6.75732 67.0976 7.11394C66.793 7.46312 66.6407 7.90518 66.6407 8.4401C66.6407 8.97502 66.793 9.42079 67.0976 9.77741C67.4022 10.134 67.796 10.3123 68.2789 10.3123ZM75.4006 5.35314C75.6234 5.35314 75.8092 5.4163 75.9578 5.5426C76.1138 5.6689 76.1918 5.81749 76.1918 5.98837C76.1918 6.21868 76.1324 6.39327 76.0135 6.51215C75.8946 6.62359 75.7535 6.67931 75.59 6.67931C75.4786 6.67931 75.3523 6.65331 75.2111 6.6013C75.1888 6.59387 75.1368 6.57901 75.0551 6.55672C74.9808 6.53443 74.8991 6.52329 74.8099 6.52329C74.6168 6.52329 74.431 6.58273 74.2527 6.7016C74.0744 6.82047 73.9258 7.00249 73.8069 7.24767C73.6955 7.48541 73.6398 7.77145 73.6398 8.10577V10.747C73.6398 10.9401 73.5766 11.1036 73.4503 11.2373C73.324 11.3636 73.1643 11.4268 72.9711 11.4268C72.778 11.4268 72.6182 11.3636 72.4919 11.2373C72.3656 11.1036 72.3025 10.9401 72.3025 10.747V6.14439C72.3025 5.95122 72.3656 5.79148 72.4919 5.66518C72.6182 5.53145 72.778 5.46459 72.9711 5.46459C73.1643 5.46459 73.324 5.53145 73.4503 5.66518C73.5766 5.79148 73.6398 5.95122 73.6398 6.14439V6.28926C73.8107 5.98465 74.0558 5.75434 74.3753 5.59832C74.6948 5.43487 75.0365 5.35314 75.4006 5.35314ZM82.2335 8.30637C82.226 8.48468 82.1555 8.62955 82.0217 8.74099C81.888 8.85244 81.732 8.90816 81.5537 8.90816H77.8761C77.9652 9.3465 78.1695 9.69197 78.489 9.94457C78.8085 10.1897 79.1688 10.3123 79.57 10.3123C79.8746 10.3123 80.1123 10.2863 80.2832 10.2343C80.4541 10.1749 80.5878 10.1155 80.6844 10.056C80.7884 9.98915 80.859 9.94457 80.8962 9.92228C81.0299 9.85542 81.1562 9.82199 81.2751 9.82199C81.4311 9.82199 81.5648 9.87771 81.6763 9.98915C81.7877 10.1006 81.8434 10.2306 81.8434 10.3792C81.8434 10.5798 81.7394 10.7618 81.5314 10.9253C81.3234 11.0961 81.0447 11.241 80.6956 11.3599C80.3464 11.4788 79.9935 11.5382 79.6369 11.5382C79.0128 11.5382 78.4667 11.4082 77.9987 11.1482C77.538 10.8881 77.1814 10.5315 76.9288 10.0783C76.6762 9.61768 76.5499 9.10133 76.5499 8.52925C76.5499 7.89032 76.6836 7.32939 76.9511 6.84647C77.2186 6.36356 77.5715 5.9958 78.0098 5.74319C78.4481 5.48316 78.9162 5.35314 79.414 5.35314C79.9043 5.35314 80.3649 5.48688 80.7959 5.75434C81.2342 6.0218 81.5834 6.38213 81.8434 6.83533C82.1034 7.28853 82.2335 7.77888 82.2335 8.30637ZM79.414 6.57901C78.5521 6.57901 78.0432 6.98392 77.8872 7.79373H80.807V7.71572C80.7773 7.40369 80.625 7.13622 80.3501 6.91334C80.0752 6.69045 79.7632 6.57901 79.414 6.57901ZM90.2248 5.35314C90.9603 5.35314 91.4692 5.57974 91.7515 6.03294C92.0338 6.47871 92.175 7.09908 92.175 7.89403V10.747C92.175 10.9401 92.1119 11.1036 91.9856 11.2373C91.8593 11.3636 91.6995 11.4268 91.5064 11.4268C91.3132 11.4268 91.1535 11.3636 91.0271 11.2373C90.9008 11.1036 90.8377 10.9401 90.8377 10.747V7.89403C90.8377 7.48541 90.756 7.16594 90.5925 6.93563C90.4365 6.69788 90.1579 6.57901 89.7567 6.57901C89.3407 6.57901 89.0138 6.70531 88.776 6.95792C88.5457 7.20309 88.4305 7.51513 88.4305 7.89403V10.747C88.4305 10.9401 88.3674 11.1036 88.2411 11.2373C88.1148 11.3636 87.9551 11.4268 87.7619 11.4268C87.5687 11.4268 87.409 11.3636 87.2827 11.2373C87.1564 11.1036 87.0932 10.9401 87.0932 10.747V7.89403C87.0932 7.48541 87.0115 7.16594 86.8481 6.93563C86.692 6.69788 86.4134 6.57901 86.0122 6.57901C85.5962 6.57901 85.2693 6.70531 85.0315 6.95792C84.8012 7.20309 84.6861 7.51513 84.6861 7.89403V10.747C84.6861 10.9401 84.6229 11.1036 84.4966 11.2373C84.3703 11.3636 84.2106 11.4268 84.0174 11.4268C83.8243 11.4268 83.6645 11.3636 83.5382 11.2373C83.4119 11.1036 83.3488 10.9401 83.3488 10.747V6.14439C83.3488 5.95122 83.4119 5.79148 83.5382 5.66518C83.6645 5.53145 83.8243 5.46459 84.0174 5.46459C84.2106 5.46459 84.3703 5.53145 84.4966 5.66518C84.6229 5.79148 84.6861 5.95122 84.6861 6.14439V6.32269C84.8867 6.05523 85.1393 5.82863 85.4439 5.64289C85.7559 5.44973 86.1014 5.35314 86.4803 5.35314C87.4164 5.35314 88.0145 5.76177 88.2745 6.57901C88.4454 6.26697 88.7017 5.98465 89.0435 5.73205C89.3927 5.47945 89.7864 5.35314 90.2248 5.35314ZM94.8817 10.747C94.8817 10.9401 94.8185 11.1036 94.6922 11.2373C94.5659 11.3636 94.4062 11.4268 94.213 11.4268C94.0198 11.4268 93.8601 11.3636 93.7338 11.2373C93.6075 11.1036 93.5444 10.9401 93.5444 10.747V6.14439C93.5444 5.95122 93.6075 5.79148 93.7338 5.66518C93.8601 5.53145 94.0198 5.46459 94.213 5.46459C94.4062 5.46459 94.5659 5.53145 94.6922 5.66518C94.8185 5.79148 94.8817 5.95122 94.8817 6.14439V10.747ZM94.2019 4.74021C93.9493 4.74021 93.771 4.69935 93.6669 4.61762C93.5629 4.5359 93.5109 4.39102 93.5109 4.183V3.97126C93.5109 3.76323 93.5666 3.61836 93.6781 3.53663C93.7895 3.45491 93.9678 3.41405 94.213 3.41405C94.473 3.41405 94.6551 3.45491 94.7591 3.53663C94.8631 3.61836 94.9151 3.76323 94.9151 3.97126V4.183C94.9151 4.39845 94.8594 4.54704 94.7479 4.62877C94.6439 4.70306 94.4619 4.74021 94.2019 4.74021ZM100.68 5.46459C100.873 5.46459 101.033 5.53145 101.16 5.66518C101.286 5.79148 101.349 5.95122 101.349 6.14439V8.97502C101.349 9.77741 101.126 10.4052 100.68 10.8584C100.242 11.3116 99.6142 11.5382 98.7969 11.5382C97.9797 11.5382 97.3519 11.3116 96.9136 10.8584C96.4752 10.4052 96.2561 9.77741 96.2561 8.97502V6.14439C96.2561 5.95122 96.3192 5.79148 96.4455 5.66518C96.5718 5.53145 96.7315 5.46459 96.9247 5.46459C97.1179 5.46459 97.2776 5.53145 97.4039 5.66518C97.5302 5.79148 97.5934 5.95122 97.5934 6.14439V8.97502C97.5934 9.42822 97.6937 9.76627 97.8943 9.98915C98.0949 10.2046 98.3958 10.3123 98.7969 10.3123C99.2056 10.3123 99.5102 10.2046 99.7108 9.98915C99.9114 9.76627 100.012 9.42822 100.012 8.97502V6.14439C100.012 5.95122 100.075 5.79148 100.201 5.66518C100.327 5.53145 100.487 5.46459 100.68 5.46459ZM109.673 5.35314C110.408 5.35314 110.917 5.57974 111.2 6.03294C111.482 6.47871 111.623 7.09908 111.623 7.89403V10.747C111.623 10.9401 111.56 11.1036 111.434 11.2373C111.307 11.3636 111.148 11.4268 110.954 11.4268C110.761 11.4268 110.601 11.3636 110.475 11.2373C110.349 11.1036 110.286 10.9401 110.286 10.747V7.89403C110.286 7.48541 110.204 7.16594 110.041 6.93563C109.885 6.69788 109.606 6.57901 109.205 6.57901C108.789 6.57901 108.462 6.70531 108.224 6.95792C107.994 7.20309 107.879 7.51513 107.879 7.89403V10.747C107.879 10.9401 107.815 11.1036 107.689 11.2373C107.563 11.3636 107.403 11.4268 107.21 11.4268C107.017 11.4268 106.857 11.3636 106.731 11.2373C106.604 11.1036 106.541 10.9401 106.541 10.747V7.89403C106.541 7.48541 106.46 7.16594 106.296 6.93563C106.14 6.69788 105.861 6.57901 105.46 6.57901C105.044 6.57901 104.717 6.70531 104.48 6.95792C104.249 7.20309 104.134 7.51513 104.134 7.89403V10.747C104.134 10.9401 104.071 11.1036 103.945 11.2373C103.818 11.3636 103.659 11.4268 103.465 11.4268C103.272 11.4268 103.113 11.3636 102.986 11.2373C102.86 11.1036 102.797 10.9401 102.797 10.747V6.14439C102.797 5.95122 102.86 5.79148 102.986 5.66518C103.113 5.53145 103.272 5.46459 103.465 5.46459C103.659 5.46459 103.818 5.53145 103.945 5.66518C104.071 5.79148 104.134 5.95122 104.134 6.14439V6.32269C104.335 6.05523 104.587 5.82863 104.892 5.64289C105.204 5.44973 105.549 5.35314 105.928 5.35314C106.864 5.35314 107.462 5.76177 107.723 6.57901C107.893 6.26697 108.15 5.98465 108.491 5.73205C108.841 5.47945 109.234 5.35314 109.673 5.35314Z" fill="#404040"/>
<path d="M122.042 11.1131V3.83447" stroke="#404040" stroke-width="1.5" stroke-linecap="round" stroke-linejoin="round"/>
<path d="M118.403 7.4738L122.043 3.83447L125.682 7.4738" stroke="#404040" stroke-width="1.5" stroke-linecap="round" stroke-linejoin="round"/>
</svg>
